<?xml version="1.0" standalone="no"?>
<!DOCTYPE svg PUBLIC "-//W3C//DTD SVG 1.1//EN" "http://www.w3.org/Graphics/SVG/1.1/DTD/svg11.dtd">
<svg version="1.1" width="1200" height="2134" onload="init(evt)" viewBox="0 0 1200 2134" xmlns="http://www.w3.org/2000/svg" xmlns:xlink="http://www.w3.org/1999/xlink">
<!-- Flame graph stack visualization. See https://github.com/brendangregg/FlameGraph for latest version, and http://www.brendangregg.com/flamegraphs.html for examples. -->
<!-- NOTES:  -->
<defs>
	<linearGradient id="background" y1="0" y2="1" x1="0" x2="0" >
		<stop stop-color="#eeeeee" offset="5%" />
		<stop stop-color="#eeeeb0" offset="95%" />
	</linearGradient>
</defs>
<style type="text/css">
	text { font-family:Verdana; font-size:12px; fill:rgb(0,0,0); }
	#search, #ignorecase { opacity:0.1; cursor:pointer; }
	#search:hover, #search.show, #ignorecase:hover, #ignorecase.show { opacity:1; }
	#subtitle { text-anchor:middle; font-color:rgb(160,160,160); }
	#title { text-anchor:middle; font-size:17px}
	#unzoom { cursor:pointer; }
	#frames > *:hover { stroke:black; stroke-width:0.5; cursor:pointer; }
	.hide { display:none; }
	.parent { opacity:0.5; }
</style>
<script type="text/ecmascript">
<![CDATA[
	"use strict";
	var details, searchbtn, unzoombtn, matchedtxt, svg, searching, currentSearchTerm, ignorecase, ignorecaseBtn;
	function init(evt) {
		details = document.getElementById("details").firstChild;
		searchbtn = document.getElementById("search");
		ignorecaseBtn = document.getElementById("ignorecase");
		unzoombtn = document.getElementById("unzoom");
		matchedtxt = document.getElementById("matched");
		svg = document.getElementsByTagName("svg")[0];
		searching = 0;
		currentSearchTerm = null;

		// use GET parameters to restore a flamegraphs state.
		var params = get_params();
		if (params.x && params.y)
			zoom(find_group(document.querySelector('[x="' + params.x + '"][y="' + params.y + '"]')));
                if (params.s) search(params.s);
	}

	// event listeners
	window.addEventListener("click", function(e) {
		var target = find_group(e.target);
		if (target) {
			if (target.nodeName == "a") {
				if (e.ctrlKey === false) return;
				e.preventDefault();
			}
			if (target.classList.contains("parent")) unzoom(true);
			zoom(target);
			if (!document.querySelector('.parent')) {
				// we have basically done a clearzoom so clear the url
				var params = get_params();
				if (params.x) delete params.x;
				if (params.y) delete params.y;
				history.replaceState(null, null, parse_params(params));
				unzoombtn.classList.add("hide");
				return;
			}

			// set parameters for zoom state
			var el = target.querySelector("rect");
			if (el && el.attributes && el.attributes.y && el.attributes._orig_x) {
				var params = get_params()
				params.x = el.attributes._orig_x.value;
				params.y = el.attributes.y.value;
				history.replaceState(null, null, parse_params(params));
			}
		}
		else if (e.target.id == "unzoom") clearzoom();
		else if (e.target.id == "search") search_prompt();
		else if (e.target.id == "ignorecase") toggle_ignorecase();
	}, false)

	// mouse-over for info
	// show
	window.addEventListener("mouseover", function(e) {
		var target = find_group(e.target);
		if (target) details.nodeValue = "Function: " + g_to_text(target);
	}, false)

	// clear
	window.addEventListener("mouseout", function(e) {
		var target = find_group(e.target);
		if (target) details.nodeValue = ' ';
	}, false)

	// ctrl-F for search
	// ctrl-I to toggle case-sensitive search
	window.addEventListener("keydown",function (e) {
		if (e.keyCode === 114 || (e.ctrlKey && e.keyCode === 70)) {
			e.preventDefault();
			search_prompt();
		}
		else if (e.ctrlKey && e.keyCode === 73) {
			e.preventDefault();
			toggle_ignorecase();
		}
	}, false)

	// functions
	function get_params() {
		var params = {};
		var paramsarr = window.location.search.substr(1).split('&');
		for (var i = 0; i < paramsarr.length; ++i) {
			var tmp = paramsarr[i].split("=");
			if (!tmp[0] || !tmp[1]) continue;
			params[tmp[0]]  = decodeURIComponent(tmp[1]);
		}
		return params;
	}
	function parse_params(params) {
		var uri = "?";
		for (var key in params) {
			uri += key + '=' + encodeURIComponent(params[key]) + '&';
		}
		if (uri.slice(-1) == "&")
			uri = uri.substring(0, uri.length - 1);
		if (uri == '?')
			uri = window.location.href.split('?')[0];
		return uri;
	}
	function find_child(node, selector) {
		var children = node.querySelectorAll(selector);
		if (children.length) return children[0];
	}
	function find_group(node) {
		var parent = node.parentElement;
		if (!parent) return;
		if (parent.id == "frames") return node;
		return find_group(parent);
	}
	function orig_save(e, attr, val) {
		if (e.attributes["_orig_" + attr] != undefined) return;
		if (e.attributes[attr] == undefined) return;
		if (val == undefined) val = e.attributes[attr].value;
		e.setAttribute("_orig_" + attr, val);
	}
	function orig_load(e, attr) {
		if (e.attributes["_orig_"+attr] == undefined) return;
		e.attributes[attr].value = e.attributes["_orig_" + attr].value;
		e.removeAttribute("_orig_"+attr);
	}
	function g_to_text(e) {
		var text = find_child(e, "title").firstChild.nodeValue;
		return (text)
	}
	function g_to_func(e) {
		var func = g_to_text(e);
		// if there's any manipulation we want to do to the function
		// name before it's searched, do it here before returning.
		return (func);
	}
	function update_text(e) {
		var r = find_child(e, "rect");
		var t = find_child(e, "text");
		var w = parseFloat(r.attributes.width.value) -3;
		var txt = find_child(e, "title").textContent.replace(/\([^(]*\)$/,"");
		t.attributes.x.value = parseFloat(r.attributes.x.value) + 3;

		// Smaller than this size won't fit anything
		if (w < 2 * 12 * 0.59) {
			t.textContent = "";
			return;
		}

		t.textContent = txt;
		var sl = t.getSubStringLength(0, txt.length);
		// check if only whitespace or if we can fit the entire string into width w
		if (/^ *$/.test(txt) || sl < w)
			return;

		// this isn't perfect, but gives a good starting point
		// and avoids calling getSubStringLength too often
		var start = Math.floor((w/sl) * txt.length);
		for (var x = start; x > 0; x = x-2) {
			if (t.getSubStringLength(0, x + 2) <= w) {
				t.textContent = txt.substring(0, x) + "..";
				return;
			}
		}
		t.textContent = "";
	}

	// zoom
	function zoom_reset(e) {
		if (e.attributes != undefined) {
			orig_load(e, "x");
			orig_load(e, "width");
		}
		if (e.childNodes == undefined) return;
		for (var i = 0, c = e.childNodes; i < c.length; i++) {
			zoom_reset(c[i]);
		}
	}
	function zoom_child(e, x, ratio) {
		if (e.attributes != undefined) {
			if (e.attributes.x != undefined) {
				orig_save(e, "x");
				e.attributes.x.value = (parseFloat(e.attributes.x.value) - x - 10) * ratio + 10;
				if (e.tagName == "text")
					e.attributes.x.value = find_child(e.parentNode, "rect[x]").attributes.x.value + 3;
			}
			if (e.attributes.width != undefined) {
				orig_save(e, "width");
				e.attributes.width.value = parseFloat(e.attributes.width.value) * ratio;
			}
		}

		if (e.childNodes == undefined) return;
		for (var i = 0, c = e.childNodes; i < c.length; i++) {
			zoom_child(c[i], x - 10, ratio);
		}
	}
	function zoom_parent(e) {
		if (e.attributes) {
			if (e.attributes.x != undefined) {
				orig_save(e, "x");
				e.attributes.x.value = 10;
			}
			if (e.attributes.width != undefined) {
				orig_save(e, "width");
				e.attributes.width.value = parseInt(svg.width.baseVal.value) - (10 * 2);
			}
		}
		if (e.childNodes == undefined) return;
		for (var i = 0, c = e.childNodes; i < c.length; i++) {
			zoom_parent(c[i]);
		}
	}
	function zoom(node) {
		var attr = find_child(node, "rect").attributes;
		var width = parseFloat(attr.width.value);
		var xmin = parseFloat(attr.x.value);
		var xmax = parseFloat(xmin + width);
		var ymin = parseFloat(attr.y.value);
		var ratio = (svg.width.baseVal.value - 2 * 10) / width;

		// XXX: Workaround for JavaScript float issues (fix me)
		var fudge = 0.0001;

		unzoombtn.classList.remove("hide");

		var el = document.getElementById("frames").children;
		for (var i = 0; i < el.length; i++) {
			var e = el[i];
			var a = find_child(e, "rect").attributes;
			var ex = parseFloat(a.x.value);
			var ew = parseFloat(a.width.value);
			var upstack;
			// Is it an ancestor
			if (0 == 0) {
				upstack = parseFloat(a.y.value) > ymin;
			} else {
				upstack = parseFloat(a.y.value) < ymin;
			}
			if (upstack) {
				// Direct ancestor
				if (ex <= xmin && (ex+ew+fudge) >= xmax) {
					e.classList.add("parent");
					zoom_parent(e);
					update_text(e);
				}
				// not in current path
				else
					e.classList.add("hide");
			}
			// Children maybe
			else {
				// no common path
				if (ex < xmin || ex + fudge >= xmax) {
					e.classList.add("hide");
				}
				else {
					zoom_child(e, xmin, ratio);
					update_text(e);
				}
			}
		}
		search();
	}
	function unzoom(dont_update_text) {
		unzoombtn.classList.add("hide");
		var el = document.getElementById("frames").children;
		for(var i = 0; i < el.length; i++) {
			el[i].classList.remove("parent");
			el[i].classList.remove("hide");
			zoom_reset(el[i]);
			if(!dont_update_text) update_text(el[i]);
		}
		search();
	}
	function clearzoom() {
		unzoom();

		// remove zoom state
		var params = get_params();
		if (params.x) delete params.x;
		if (params.y) delete params.y;
		history.replaceState(null, null, parse_params(params));
	}

	// search
	function toggle_ignorecase() {
		ignorecase = !ignorecase;
		if (ignorecase) {
			ignorecaseBtn.classList.add("show");
		} else {
			ignorecaseBtn.classList.remove("show");
		}
		reset_search();
		search();
	}
	function reset_search() {
		var el = document.querySelectorAll("#frames rect");
		for (var i = 0; i < el.length; i++) {
			orig_load(el[i], "fill")
		}
		var params = get_params();
		delete params.s;
		history.replaceState(null, null, parse_params(params));
	}
	function search_prompt() {
		if (!searching) {
			var term = prompt("Enter a search term (regexp " +
			    "allowed, eg: ^ext4_)"
			    + (ignorecase ? ", ignoring case" : "")
			    + "\nPress Ctrl-i to toggle case sensitivity", "");
			if (term != null) search(term);
		} else {
			reset_search();
			searching = 0;
			currentSearchTerm = null;
			searchbtn.classList.remove("show");
			searchbtn.firstChild.nodeValue = "Search"
			matchedtxt.classList.add("hide");
			matchedtxt.firstChild.nodeValue = ""
		}
	}
	function search(term) {
		if (term) currentSearchTerm = term;

		var re = new RegExp(currentSearchTerm, ignorecase ? 'i' : '');
		var el = document.getElementById("frames").children;
		var matches = new Object();
		var maxwidth = 0;
		for (var i = 0; i < el.length; i++) {
			var e = el[i];
			var func = g_to_func(e);
			var rect = find_child(e, "rect");
			if (func == null || rect == null)
				continue;

			// Save max width. Only works as we have a root frame
			var w = parseFloat(rect.attributes.width.value);
			if (w > maxwidth)
				maxwidth = w;

			if (func.match(re)) {
				// highlight
				var x = parseFloat(rect.attributes.x.value);
				orig_save(rect, "fill");
				rect.attributes.fill.value = "rgb(230,0,230)";

				// remember matches
				if (matches[x] == undefined) {
					matches[x] = w;
				} else {
					if (w > matches[x]) {
						// overwrite with parent
						matches[x] = w;
					}
				}
				searching = 1;
			}
		}
		if (!searching)
			return;
		var params = get_params();
		params.s = currentSearchTerm;
		history.replaceState(null, null, parse_params(params));

		searchbtn.classList.add("show");
		searchbtn.firstChild.nodeValue = "Reset Search";

		// calculate percent matched, excluding vertical overlap
		var count = 0;
		var lastx = -1;
		var lastw = 0;
		var keys = Array();
		for (k in matches) {
			if (matches.hasOwnProperty(k))
				keys.push(k);
		}
		// sort the matched frames by their x location
		// ascending, then width descending
		keys.sort(function(a, b){
			return a - b;
		});
		// Step through frames saving only the biggest bottom-up frames
		// thanks to the sort order. This relies on the tree property
		// where children are always smaller than their parents.
		var fudge = 0.0001;	// JavaScript floating point
		for (var k in keys) {
			var x = parseFloat(keys[k]);
			var w = matches[keys[k]];
			if (x >= lastx + lastw - fudge) {
				count += w;
				lastx = x;
				lastw = w;
			}
		}
		// display matched percent
		matchedtxt.classList.remove("hide");
		var pct = 100 * count / maxwidth;
		if (pct != 100) pct = pct.toFixed(1)
		matchedtxt.firstChild.nodeValue = "Matched: " + pct + "%";
	}
]]>
</script>
<rect x="0.0" y="0" width="1200.0" height="2134.0" fill="url(#background)"  />
<text id="title" x="600.00" y="24" >Flame Graph</text>
<text id="details" x="10.00" y="2117" > </text>
<text id="unzoom" x="10.00" y="24" class="hide">Reset Zoom</text>
<text id="search" x="1090.00" y="24" >Search</text>
<text id="ignorecase" x="1174.00" y="24" >ic</text>
<text id="matched" x="1090.00" y="2117" > </text>
<g id="frames">
<g >
<title>[unknown] (45,950,561 samples, 2.14%)</title><rect x="1164.7" y="693" width="25.3" height="15.0" fill="rgb(239,74,6)" rx="2" ry="2" />
<text  x="1167.70" y="703.5" >[..</text>
</g>
<g >
<title>[unknown] (45,950,561 samples, 2.14%)</title><rect x="1164.7" y="1589" width="25.3" height="15.0" fill="rgb(247,19,14)" rx="2" ry="2" />
<text  x="1167.70" y="1599.5" >[..</text>
</g>
<g >
<title>[unknown] (45,950,561 samples, 2.14%)</title><rect x="1164.7" y="1109" width="25.3" height="15.0" fill="rgb(254,145,7)" rx="2" ry="2" />
<text  x="1167.70" y="1119.5" >[..</text>
</g>
<g >
<title>[unknown] (45,950,561 samples, 2.14%)</title><rect x="1164.7" y="1445" width="25.3" height="15.0" fill="rgb(218,150,9)" rx="2" ry="2" />
<text  x="1167.70" y="1455.5" >[..</text>
</g>
<g >
<title>[unknown] (45,950,561 samples, 2.14%)</title><rect x="1164.7" y="341" width="25.3" height="15.0" fill="rgb(234,181,43)" rx="2" ry="2" />
<text  x="1167.70" y="351.5" >[..</text>
</g>
<g >
<title>[unknown] (45,950,561 samples, 2.14%)</title><rect x="1164.7" y="1989" width="25.3" height="15.0" fill="rgb(220,27,48)" rx="2" ry="2" />
<text  x="1167.70" y="1999.5" >[..</text>
</g>
<g >
<title>[unknown] (45,950,561 samples, 2.14%)</title><rect x="1164.7" y="1253" width="25.3" height="15.0" fill="rgb(243,87,26)" rx="2" ry="2" />
<text  x="1167.70" y="1263.5" >[..</text>
</g>
<g >
<title>[unknown] (45,950,561 samples, 2.14%)</title><rect x="1164.7" y="869" width="25.3" height="15.0" fill="rgb(217,176,33)" rx="2" ry="2" />
<text  x="1167.70" y="879.5" >[..</text>
</g>
<g >
<title>[unknown] (244,444,973 samples, 11.41%)</title><rect x="1055.4" y="2037" width="134.6" height="15.0" fill="rgb(224,207,16)" rx="2" ry="2" />
<text  x="1058.39" y="2047.5" >[unknown]</text>
</g>
<g >
<title>[unknown] (45,950,561 samples, 2.14%)</title><rect x="1164.7" y="1845" width="25.3" height="15.0" fill="rgb(245,128,7)" rx="2" ry="2" />
<text  x="1167.70" y="1855.5" >[..</text>
</g>
<g >
<title>[libgcc_s.so.1] (27,298,952 samples, 1.27%)</title><rect x="221.1" y="2021" width="15.0" height="15.0" fill="rgb(217,18,26)" rx="2" ry="2" />
<text  x="224.05" y="2031.5" ></text>
</g>
<g >
<title>[libc.so.6] (4,414,536 samples, 0.21%)</title><rect x="10.0" y="2053" width="2.4" height="15.0" fill="rgb(217,4,42)" rx="2" ry="2" />
<text  x="13.00" y="2063.5" ></text>
</g>
<g >
<title>[unknown] (45,950,561 samples, 2.14%)</title><rect x="1164.7" y="613" width="25.3" height="15.0" fill="rgb(243,181,24)" rx="2" ry="2" />
<text  x="1167.70" y="623.5" >[..</text>
</g>
<g >
<title>[unknown] (45,950,561 samples, 2.14%)</title><rect x="1164.7" y="885" width="25.3" height="15.0" fill="rgb(238,70,35)" rx="2" ry="2" />
<text  x="1167.70" y="895.5" >[..</text>
</g>
<g >
<title>[unknown] (45,950,561 samples, 2.14%)</title><rect x="1164.7" y="1829" width="25.3" height="15.0" fill="rgb(215,69,5)" rx="2" ry="2" />
<text  x="1167.70" y="1839.5" >[..</text>
</g>
<g >
<title>[unknown] (45,950,561 samples, 2.14%)</title><rect x="1164.7" y="1637" width="25.3" height="15.0" fill="rgb(218,74,11)" rx="2" ry="2" />
<text  x="1167.70" y="1647.5" >[..</text>
</g>
<g >
<title>[unknown] (45,950,561 samples, 2.14%)</title><rect x="1164.7" y="1301" width="25.3" height="15.0" fill="rgb(209,15,30)" rx="2" ry="2" />
<text  x="1167.70" y="1311.5" >[..</text>
</g>
<g >
<title>[unknown] (45,950,561 samples, 2.14%)</title><rect x="1164.7" y="1909" width="25.3" height="15.0" fill="rgb(210,7,37)" rx="2" ry="2" />
<text  x="1167.70" y="1919.5" >[..</text>
</g>
<g >
<title>[unknown] (45,950,561 samples, 2.14%)</title><rect x="1164.7" y="1173" width="25.3" height="15.0" fill="rgb(211,166,48)" rx="2" ry="2" />
<text  x="1167.70" y="1183.5" >[..</text>
</g>
<g >
<title>[unknown] (4,374,046 samples, 0.20%)</title><rect x="574.7" y="2021" width="2.4" height="15.0" fill="rgb(228,229,28)" rx="2" ry="2" />
<text  x="577.73" y="2031.5" ></text>
</g>
<g >
<title>[unknown] (45,950,561 samples, 2.14%)</title><rect x="1164.7" y="469" width="25.3" height="15.0" fill="rgb(230,96,28)" rx="2" ry="2" />
<text  x="1167.70" y="479.5" >[..</text>
</g>
<g >
<title>[unknown] (45,950,561 samples, 2.14%)</title><rect x="1164.7" y="1045" width="25.3" height="15.0" fill="rgb(222,140,22)" rx="2" ry="2" />
<text  x="1167.70" y="1055.5" >[..</text>
</g>
<g >
<title>[unknown] (45,950,561 samples, 2.14%)</title><rect x="1164.7" y="453" width="25.3" height="15.0" fill="rgb(254,152,44)" rx="2" ry="2" />
<text  x="1167.70" y="463.5" >[..</text>
</g>
<g >
<title>[unknown] (45,950,561 samples, 2.14%)</title><rect x="1164.7" y="773" width="25.3" height="15.0" fill="rgb(218,52,3)" rx="2" ry="2" />
<text  x="1167.70" y="783.5" >[..</text>
</g>
<g >
<title>[unknown] (45,950,561 samples, 2.14%)</title><rect x="1164.7" y="1525" width="25.3" height="15.0" fill="rgb(249,198,10)" rx="2" ry="2" />
<text  x="1167.70" y="1535.5" >[..</text>
</g>
<g >
<title>[unknown] (45,950,561 samples, 2.14%)</title><rect x="1164.7" y="85" width="25.3" height="15.0" fill="rgb(249,222,13)" rx="2" ry="2" />
<text  x="1167.70" y="95.5" >[..</text>
</g>
<g >
<title>[unknown] (45,950,561 samples, 2.14%)</title><rect x="1164.7" y="1381" width="25.3" height="15.0" fill="rgb(215,104,9)" rx="2" ry="2" />
<text  x="1167.70" y="1391.5" >[..</text>
</g>
<g >
<title>[unknown] (45,950,561 samples, 2.14%)</title><rect x="1164.7" y="949" width="25.3" height="15.0" fill="rgb(249,104,18)" rx="2" ry="2" />
<text  x="1167.70" y="959.5" >[..</text>
</g>
<g >
<title>[unknown] (45,950,561 samples, 2.14%)</title><rect x="1164.7" y="1509" width="25.3" height="15.0" fill="rgb(237,222,1)" rx="2" ry="2" />
<text  x="1167.70" y="1519.5" >[..</text>
</g>
<g >
<title>[unknown] (45,950,561 samples, 2.14%)</title><rect x="1164.7" y="533" width="25.3" height="15.0" fill="rgb(212,19,21)" rx="2" ry="2" />
<text  x="1167.70" y="543.5" >[..</text>
</g>
<g >
<title>[unknown] (45,950,561 samples, 2.14%)</title><rect x="1164.7" y="1973" width="25.3" height="15.0" fill="rgb(236,112,41)" rx="2" ry="2" />
<text  x="1167.70" y="1983.5" >[..</text>
</g>
<g >
<title>[unknown] (45,950,561 samples, 2.14%)</title><rect x="1164.7" y="1029" width="25.3" height="15.0" fill="rgb(224,36,3)" rx="2" ry="2" />
<text  x="1167.70" y="1039.5" >[..</text>
</g>
<g >
<title>[unknown] (45,950,561 samples, 2.14%)</title><rect x="1164.7" y="229" width="25.3" height="15.0" fill="rgb(244,159,9)" rx="2" ry="2" />
<text  x="1167.70" y="239.5" >[..</text>
</g>
<g >
<title>[unknown] (45,950,561 samples, 2.14%)</title><rect x="1164.7" y="1717" width="25.3" height="15.0" fill="rgb(211,211,29)" rx="2" ry="2" />
<text  x="1167.70" y="1727.5" >[..</text>
</g>
<g >
<title>[unknown] (45,950,561 samples, 2.14%)</title><rect x="1164.7" y="261" width="25.3" height="15.0" fill="rgb(240,75,13)" rx="2" ry="2" />
<text  x="1167.70" y="271.5" >[..</text>
</g>
<g >
<title>[unknown] (45,950,561 samples, 2.14%)</title><rect x="1164.7" y="965" width="25.3" height="15.0" fill="rgb(234,164,20)" rx="2" ry="2" />
<text  x="1167.70" y="975.5" >[..</text>
</g>
<g >
<title>[unknown] (45,950,561 samples, 2.14%)</title><rect x="1164.7" y="1237" width="25.3" height="15.0" fill="rgb(228,59,18)" rx="2" ry="2" />
<text  x="1167.70" y="1247.5" >[..</text>
</g>
<g >
<title>[ACM_ICPC_Management] (17,579,840 samples, 0.82%)</title><rect x="1060.2" y="2005" width="9.7" height="15.0" fill="rgb(228,40,48)" rx="2" ry="2" />
<text  x="1063.22" y="2015.5" ></text>
</g>
<g >
<title>[unknown] (45,950,561 samples, 2.14%)</title><rect x="1164.7" y="1349" width="25.3" height="15.0" fill="rgb(205,84,26)" rx="2" ry="2" />
<text  x="1167.70" y="1359.5" >[..</text>
</g>
<g >
<title>[unknown] (45,950,561 samples, 2.14%)</title><rect x="1164.7" y="677" width="25.3" height="15.0" fill="rgb(210,29,0)" rx="2" ry="2" />
<text  x="1167.70" y="687.5" >[..</text>
</g>
<g >
<title>[unknown] (45,950,561 samples, 2.14%)</title><rect x="1164.7" y="1781" width="25.3" height="15.0" fill="rgb(212,76,6)" rx="2" ry="2" />
<text  x="1167.70" y="1791.5" >[..</text>
</g>
<g >
<title>[unknown] (45,950,561 samples, 2.14%)</title><rect x="1164.7" y="1061" width="25.3" height="15.0" fill="rgb(231,205,24)" rx="2" ry="2" />
<text  x="1167.70" y="1071.5" >[..</text>
</g>
<g >
<title>[unknown] (45,950,561 samples, 2.14%)</title><rect x="1164.7" y="421" width="25.3" height="15.0" fill="rgb(242,197,5)" rx="2" ry="2" />
<text  x="1167.70" y="431.5" >[..</text>
</g>
<g >
<title>[unknown] (45,950,561 samples, 2.14%)</title><rect x="1164.7" y="389" width="25.3" height="15.0" fill="rgb(233,6,36)" rx="2" ry="2" />
<text  x="1167.70" y="399.5" >[..</text>
</g>
<g >
<title>[unknown] (45,950,561 samples, 2.14%)</title><rect x="1164.7" y="1541" width="25.3" height="15.0" fill="rgb(244,151,50)" rx="2" ry="2" />
<text  x="1167.70" y="1551.5" >[..</text>
</g>
<g >
<title>[unknown] (45,950,561 samples, 2.14%)</title><rect x="1164.7" y="165" width="25.3" height="15.0" fill="rgb(252,31,3)" rx="2" ry="2" />
<text  x="1167.70" y="175.5" >[..</text>
</g>
<g >
<title>[unknown] (45,950,561 samples, 2.14%)</title><rect x="1164.7" y="1365" width="25.3" height="15.0" fill="rgb(224,166,31)" rx="2" ry="2" />
<text  x="1167.70" y="1375.5" >[..</text>
</g>
<g >
<title>[unknown] (45,950,561 samples, 2.14%)</title><rect x="1164.7" y="821" width="25.3" height="15.0" fill="rgb(229,149,15)" rx="2" ry="2" />
<text  x="1167.70" y="831.5" >[..</text>
</g>
<g >
<title>[unknown] (45,950,561 samples, 2.14%)</title><rect x="1164.7" y="309" width="25.3" height="15.0" fill="rgb(226,103,20)" rx="2" ry="2" />
<text  x="1167.70" y="319.5" >[..</text>
</g>
<g >
<title>[unknown] (45,950,561 samples, 2.14%)</title><rect x="1164.7" y="1925" width="25.3" height="15.0" fill="rgb(216,226,28)" rx="2" ry="2" />
<text  x="1167.70" y="1935.5" >[..</text>
</g>
<g >
<title>[libstdc++.so.6.0.30] (864,062,189 samples, 40.32%)</title><rect x="579.6" y="2037" width="475.8" height="15.0" fill="rgb(246,169,11)" rx="2" ry="2" />
<text  x="582.56" y="2047.5" >[libstdc++.so.6.0.30]</text>
</g>
<g >
<title>[unknown] (45,950,561 samples, 2.14%)</title><rect x="1164.7" y="597" width="25.3" height="15.0" fill="rgb(249,212,31)" rx="2" ry="2" />
<text  x="1167.70" y="607.5" >[..</text>
</g>
<g >
<title>[unknown] (45,950,561 samples, 2.14%)</title><rect x="1164.7" y="117" width="25.3" height="15.0" fill="rgb(226,31,27)" rx="2" ry="2" />
<text  x="1167.70" y="127.5" >[..</text>
</g>
<g >
<title>[ACM_ICPC_Management] (35,132,723 samples, 1.64%)</title><rect x="1055.4" y="2021" width="19.3" height="15.0" fill="rgb(205,161,49)" rx="2" ry="2" />
<text  x="1058.39" y="2031.5" ></text>
</g>
<g >
<title>[unknown] (45,950,561 samples, 2.14%)</title><rect x="1164.7" y="1653" width="25.3" height="15.0" fill="rgb(225,103,31)" rx="2" ry="2" />
<text  x="1167.70" y="1663.5" >[..</text>
</g>
<g >
<title>[unknown] (45,950,561 samples, 2.14%)</title><rect x="1164.7" y="293" width="25.3" height="15.0" fill="rgb(222,126,36)" rx="2" ry="2" />
<text  x="1167.70" y="303.5" >[..</text>
</g>
<g >
<title>[unknown] (45,950,561 samples, 2.14%)</title><rect x="1164.7" y="757" width="25.3" height="15.0" fill="rgb(244,25,52)" rx="2" ry="2" />
<text  x="1167.70" y="767.5" >[..</text>
</g>
<g >
<title>[unknown] (45,950,561 samples, 2.14%)</title><rect x="1164.7" y="981" width="25.3" height="15.0" fill="rgb(241,228,15)" rx="2" ry="2" />
<text  x="1167.70" y="991.5" >[..</text>
</g>
<g >
<title>[unknown] (45,950,561 samples, 2.14%)</title><rect x="1164.7" y="1461" width="25.3" height="15.0" fill="rgb(231,72,30)" rx="2" ry="2" />
<text  x="1167.70" y="1471.5" >[..</text>
</g>
<g >
<title>[unknown] (45,950,561 samples, 2.14%)</title><rect x="1164.7" y="53" width="25.3" height="15.0" fill="rgb(245,182,16)" rx="2" ry="2" />
<text  x="1167.70" y="63.5" >[..</text>
</g>
<g >
<title>[unknown] (45,950,561 samples, 2.14%)</title><rect x="1164.7" y="1157" width="25.3" height="15.0" fill="rgb(237,207,27)" rx="2" ry="2" />
<text  x="1167.70" y="1167.5" >[..</text>
</g>
<g >
<title>[ACM_ICPC_Management] (154,598,204 samples, 7.21%)</title><rect x="1074.7" y="2005" width="85.2" height="15.0" fill="rgb(226,179,42)" rx="2" ry="2" />
<text  x="1077.73" y="2015.5" >[ACM_ICPC_..</text>
</g>
<g >
<title>[unknown] (45,950,561 samples, 2.14%)</title><rect x="1164.7" y="1861" width="25.3" height="15.0" fill="rgb(222,149,23)" rx="2" ry="2" />
<text  x="1167.70" y="1871.5" >[..</text>
</g>
<g >
<title>[unknown] (45,950,561 samples, 2.14%)</title><rect x="1164.7" y="1125" width="25.3" height="15.0" fill="rgb(239,85,24)" rx="2" ry="2" />
<text  x="1167.70" y="1135.5" >[..</text>
</g>
<g >
<title>[unknown] (45,950,561 samples, 2.14%)</title><rect x="1164.7" y="1733" width="25.3" height="15.0" fill="rgb(221,196,46)" rx="2" ry="2" />
<text  x="1167.70" y="1743.5" >[..</text>
</g>
<g >
<title>[unknown] (209,312,250 samples, 9.77%)</title><rect x="1074.7" y="2021" width="115.3" height="15.0" fill="rgb(221,211,40)" rx="2" ry="2" />
<text  x="1077.73" y="2031.5" >[unknown]</text>
</g>
<g >
<title>[unknown] (45,950,561 samples, 2.14%)</title><rect x="1164.7" y="1605" width="25.3" height="15.0" fill="rgb(218,94,18)" rx="2" ry="2" />
<text  x="1167.70" y="1615.5" >[..</text>
</g>
<g >
<title>[unknown] (45,950,561 samples, 2.14%)</title><rect x="1164.7" y="901" width="25.3" height="15.0" fill="rgb(218,102,1)" rx="2" ry="2" />
<text  x="1167.70" y="911.5" >[..</text>
</g>
<g >
<title>[unknown] (45,950,561 samples, 2.14%)</title><rect x="1164.7" y="1429" width="25.3" height="15.0" fill="rgb(254,118,24)" rx="2" ry="2" />
<text  x="1167.70" y="1439.5" >[..</text>
</g>
<g >
<title>[unknown] (45,950,561 samples, 2.14%)</title><rect x="1164.7" y="181" width="25.3" height="15.0" fill="rgb(245,101,29)" rx="2" ry="2" />
<text  x="1167.70" y="191.5" >[..</text>
</g>
<g >
<title>[unknown] (45,950,561 samples, 2.14%)</title><rect x="1164.7" y="517" width="25.3" height="15.0" fill="rgb(249,21,47)" rx="2" ry="2" />
<text  x="1167.70" y="527.5" >[..</text>
</g>
<g >
<title>[unknown] (45,950,561 samples, 2.14%)</title><rect x="1164.7" y="373" width="25.3" height="15.0" fill="rgb(235,208,43)" rx="2" ry="2" />
<text  x="1167.70" y="383.5" >[..</text>
</g>
<g >
<title>[unknown] (45,950,561 samples, 2.14%)</title><rect x="1164.7" y="629" width="25.3" height="15.0" fill="rgb(234,157,40)" rx="2" ry="2" />
<text  x="1167.70" y="639.5" >[..</text>
</g>
<g >
<title>[unknown] (45,950,561 samples, 2.14%)</title><rect x="1164.7" y="1621" width="25.3" height="15.0" fill="rgb(229,177,46)" rx="2" ry="2" />
<text  x="1167.70" y="1631.5" >[..</text>
</g>
<g >
<title>[unknown] (45,950,561 samples, 2.14%)</title><rect x="1164.7" y="709" width="25.3" height="15.0" fill="rgb(238,219,12)" rx="2" ry="2" />
<text  x="1167.70" y="719.5" >[..</text>
</g>
<g >
<title>[unknown] (45,950,561 samples, 2.14%)</title><rect x="1164.7" y="1317" width="25.3" height="15.0" fill="rgb(244,53,13)" rx="2" ry="2" />
<text  x="1167.70" y="1327.5" >[..</text>
</g>
<g >
<title>[libgcc_s.so.1] (8,778,379 samples, 0.41%)</title><rect x="1069.9" y="2005" width="4.8" height="15.0" fill="rgb(246,74,38)" rx="2" ry="2" />
<text  x="1072.90" y="2015.5" ></text>
</g>
<g >
<title>[unknown] (45,950,561 samples, 2.14%)</title><rect x="1164.7" y="1941" width="25.3" height="15.0" fill="rgb(223,148,53)" rx="2" ry="2" />
<text  x="1167.70" y="1951.5" >[..</text>
</g>
<g >
<title>[unknown] (45,950,561 samples, 2.14%)</title><rect x="1164.7" y="853" width="25.3" height="15.0" fill="rgb(224,20,3)" rx="2" ry="2" />
<text  x="1167.70" y="863.5" >[..</text>
</g>
<g >
<title>[unknown] (45,950,561 samples, 2.14%)</title><rect x="1164.7" y="725" width="25.3" height="15.0" fill="rgb(245,24,15)" rx="2" ry="2" />
<text  x="1167.70" y="735.5" >[..</text>
</g>
<g >
<title>[unknown] (45,950,561 samples, 2.14%)</title><rect x="1164.7" y="2005" width="25.3" height="15.0" fill="rgb(230,175,15)" rx="2" ry="2" />
<text  x="1167.70" y="2015.5" >[..</text>
</g>
<g >
<title>[unknown] (45,950,561 samples, 2.14%)</title><rect x="1164.7" y="1573" width="25.3" height="15.0" fill="rgb(222,141,5)" rx="2" ry="2" />
<text  x="1167.70" y="1583.5" >[..</text>
</g>
<g >
<title>[libc.so.6] (619,322,579 samples, 28.90%)</title><rect x="236.1" y="2037" width="341.0" height="15.0" fill="rgb(223,51,38)" rx="2" ry="2" />
<text  x="239.08" y="2047.5" >[libc.so.6]</text>
</g>
<g >
<title>[unknown] (45,950,561 samples, 2.14%)</title><rect x="1164.7" y="1093" width="25.3" height="15.0" fill="rgb(240,71,20)" rx="2" ry="2" />
<text  x="1167.70" y="1103.5" >[..</text>
</g>
<g >
<title>[unknown] (45,950,561 samples, 2.14%)</title><rect x="1164.7" y="1765" width="25.3" height="15.0" fill="rgb(239,181,46)" rx="2" ry="2" />
<text  x="1167.70" y="1775.5" >[..</text>
</g>
<g >
<title>[ACM_ICPC_Management] (406,132,821 samples, 18.95%)</title><rect x="12.4" y="2037" width="223.7" height="15.0" fill="rgb(215,204,28)" rx="2" ry="2" />
<text  x="15.43" y="2047.5" >[ACM_ICPC_Management]</text>
</g>
<g >
<title>[unknown] (45,950,561 samples, 2.14%)</title><rect x="1164.7" y="1269" width="25.3" height="15.0" fill="rgb(225,68,54)" rx="2" ry="2" />
<text  x="1167.70" y="1279.5" >[..</text>
</g>
<g >
<title>[unknown] (45,950,561 samples, 2.14%)</title><rect x="1164.7" y="1813" width="25.3" height="15.0" fill="rgb(239,205,6)" rx="2" ry="2" />
<text  x="1167.70" y="1823.5" >[..</text>
</g>
<g >
<title>[unknown] (45,950,561 samples, 2.14%)</title><rect x="1164.7" y="245" width="25.3" height="15.0" fill="rgb(251,204,38)" rx="2" ry="2" />
<text  x="1167.70" y="255.5" >[..</text>
</g>
<g >
<title>[unknown] (45,950,561 samples, 2.14%)</title><rect x="1164.7" y="1397" width="25.3" height="15.0" fill="rgb(208,137,12)" rx="2" ry="2" />
<text  x="1167.70" y="1407.5" >[..</text>
</g>
<g >
<title>[libgcc_s.so.1] (4,398,760 samples, 0.21%)</title><rect x="577.1" y="2037" width="2.5" height="15.0" fill="rgb(224,73,37)" rx="2" ry="2" />
<text  x="580.14" y="2047.5" ></text>
</g>
<g >
<title>[unknown] (45,950,561 samples, 2.14%)</title><rect x="1164.7" y="933" width="25.3" height="15.0" fill="rgb(247,53,5)" rx="2" ry="2" />
<text  x="1167.70" y="943.5" >[..</text>
</g>
<g >
<title>[unknown] (45,950,561 samples, 2.14%)</title><rect x="1164.7" y="1189" width="25.3" height="15.0" fill="rgb(237,181,51)" rx="2" ry="2" />
<text  x="1167.70" y="1199.5" >[..</text>
</g>
<g >
<title>[unknown] (45,950,561 samples, 2.14%)</title><rect x="1164.7" y="565" width="25.3" height="15.0" fill="rgb(223,40,14)" rx="2" ry="2" />
<text  x="1167.70" y="575.5" >[..</text>
</g>
<g >
<title>[ACM_ICPC_Management] (41,747,392 samples, 1.95%)</title><rect x="1164.7" y="37" width="23.0" height="15.0" fill="rgb(247,2,15)" rx="2" ry="2" />
<text  x="1167.70" y="47.5" >[..</text>
</g>
<g >
<title>[ACM_ICPC_Management] (13,162,626 samples, 0.61%)</title><rect x="213.8" y="2021" width="7.3" height="15.0" fill="rgb(241,174,40)" rx="2" ry="2" />
<text  x="216.80" y="2031.5" ></text>
</g>
<g >
<title>[libgcc_s.so.1] (61,862,311 samples, 2.89%)</title><rect x="1125.8" y="1989" width="34.1" height="15.0" fill="rgb(234,146,41)" rx="2" ry="2" />
<text  x="1128.80" y="1999.5" >[l..</text>
</g>
<g >
<title>[unknown] (45,950,561 samples, 2.14%)</title><rect x="1164.7" y="1701" width="25.3" height="15.0" fill="rgb(253,22,14)" rx="2" ry="2" />
<text  x="1167.70" y="1711.5" >[..</text>
</g>
<g >
<title>[unknown] (45,950,561 samples, 2.14%)</title><rect x="1164.7" y="69" width="25.3" height="15.0" fill="rgb(253,156,51)" rx="2" ry="2" />
<text  x="1167.70" y="79.5" >[..</text>
</g>
<g >
<title>[unknown] (45,950,561 samples, 2.14%)</title><rect x="1164.7" y="101" width="25.3" height="15.0" fill="rgb(243,151,44)" rx="2" ry="2" />
<text  x="1167.70" y="111.5" >[..</text>
</g>
<g >
<title>[unknown] (45,950,561 samples, 2.14%)</title><rect x="1164.7" y="1893" width="25.3" height="15.0" fill="rgb(244,5,50)" rx="2" ry="2" />
<text  x="1167.70" y="1903.5" >[..</text>
</g>
<g >
<title>[unknown] (45,950,561 samples, 2.14%)</title><rect x="1164.7" y="1205" width="25.3" height="15.0" fill="rgb(251,191,5)" rx="2" ry="2" />
<text  x="1167.70" y="1215.5" >[..</text>
</g>
<g >
<title>[unknown] (45,950,561 samples, 2.14%)</title><rect x="1164.7" y="1957" width="25.3" height="15.0" fill="rgb(234,52,21)" rx="2" ry="2" />
<text  x="1167.70" y="1967.5" >[..</text>
</g>
<g >
<title>[ACM_ICPC_Management] (57,049,538 samples, 2.66%)</title><rect x="1094.4" y="1989" width="31.4" height="15.0" fill="rgb(245,0,21)" rx="2" ry="2" />
<text  x="1097.39" y="1999.5" >[A..</text>
</g>
<g >
<title>[unknown] (45,950,561 samples, 2.14%)</title><rect x="1164.7" y="485" width="25.3" height="15.0" fill="rgb(253,208,2)" rx="2" ry="2" />
<text  x="1167.70" y="495.5" >[..</text>
</g>
<g >
<title>[unknown] (45,950,561 samples, 2.14%)</title><rect x="1164.7" y="1013" width="25.3" height="15.0" fill="rgb(235,113,52)" rx="2" ry="2" />
<text  x="1167.70" y="1023.5" >[..</text>
</g>
<g >
<title>[unknown] (45,950,561 samples, 2.14%)</title><rect x="1164.7" y="789" width="25.3" height="15.0" fill="rgb(213,66,2)" rx="2" ry="2" />
<text  x="1167.70" y="799.5" >[..</text>
</g>
<g >
<title>[unknown] (45,950,561 samples, 2.14%)</title><rect x="1164.7" y="197" width="25.3" height="15.0" fill="rgb(248,79,43)" rx="2" ry="2" />
<text  x="1167.70" y="207.5" >[..</text>
</g>
<g >
<title>[unknown] (45,950,561 samples, 2.14%)</title><rect x="1164.7" y="1493" width="25.3" height="15.0" fill="rgb(251,148,50)" rx="2" ry="2" />
<text  x="1167.70" y="1503.5" >[..</text>
</g>
<g >
<title>[unknown] (45,950,561 samples, 2.14%)</title><rect x="1164.7" y="549" width="25.3" height="15.0" fill="rgb(247,209,0)" rx="2" ry="2" />
<text  x="1167.70" y="559.5" >[..</text>
</g>
<g >
<title>[unknown] (45,950,561 samples, 2.14%)</title><rect x="1164.7" y="437" width="25.3" height="15.0" fill="rgb(241,161,41)" rx="2" ry="2" />
<text  x="1167.70" y="447.5" >[..</text>
</g>
<g >
<title>[unknown] (45,950,561 samples, 2.14%)</title><rect x="1164.7" y="325" width="25.3" height="15.0" fill="rgb(208,129,36)" rx="2" ry="2" />
<text  x="1167.70" y="335.5" >[..</text>
</g>
<g >
<title>[unknown] (45,950,561 samples, 2.14%)</title><rect x="1164.7" y="149" width="25.3" height="15.0" fill="rgb(251,147,0)" rx="2" ry="2" />
<text  x="1167.70" y="159.5" >[..</text>
</g>
<g >
<title>[unknown] (45,950,561 samples, 2.14%)</title><rect x="1164.7" y="1333" width="25.3" height="15.0" fill="rgb(220,83,27)" rx="2" ry="2" />
<text  x="1167.70" y="1343.5" >[..</text>
</g>
<g >
<title>[unknown] (45,950,561 samples, 2.14%)</title><rect x="1164.7" y="581" width="25.3" height="15.0" fill="rgb(207,62,38)" rx="2" ry="2" />
<text  x="1167.70" y="591.5" >[..</text>
</g>
<g >
<title>[unknown] (45,950,561 samples, 2.14%)</title><rect x="1164.7" y="357" width="25.3" height="15.0" fill="rgb(252,191,8)" rx="2" ry="2" />
<text  x="1167.70" y="367.5" >[..</text>
</g>
<g >
<title>[unknown] (45,950,561 samples, 2.14%)</title><rect x="1164.7" y="805" width="25.3" height="15.0" fill="rgb(247,168,38)" rx="2" ry="2" />
<text  x="1167.70" y="815.5" >[..</text>
</g>
<g >
<title>[unknown] (45,950,561 samples, 2.14%)</title><rect x="1164.7" y="277" width="25.3" height="15.0" fill="rgb(250,80,10)" rx="2" ry="2" />
<text  x="1167.70" y="287.5" >[..</text>
</g>
<g >
<title>[unknown] (45,950,561 samples, 2.14%)</title><rect x="1164.7" y="133" width="25.3" height="15.0" fill="rgb(253,226,26)" rx="2" ry="2" />
<text  x="1167.70" y="143.5" >[..</text>
</g>
<g >
<title>[unknown] (45,950,561 samples, 2.14%)</title><rect x="1164.7" y="837" width="25.3" height="15.0" fill="rgb(232,3,47)" rx="2" ry="2" />
<text  x="1167.70" y="847.5" >[..</text>
</g>
<g >
<title>[unknown] (45,950,561 samples, 2.14%)</title><rect x="1164.7" y="1685" width="25.3" height="15.0" fill="rgb(237,224,1)" rx="2" ry="2" />
<text  x="1167.70" y="1695.5" >[..</text>
</g>
<g >
<title>[unknown] (45,950,561 samples, 2.14%)</title><rect x="1164.7" y="1221" width="25.3" height="15.0" fill="rgb(215,124,42)" rx="2" ry="2" />
<text  x="1167.70" y="1231.5" >[..</text>
</g>
<g >
<title>[libc.so.6] (288,365,776 samples, 13.46%)</title><rect x="415.9" y="2021" width="158.8" height="15.0" fill="rgb(205,109,54)" rx="2" ry="2" />
<text  x="418.93" y="2031.5" >[libc.so.6]</text>
</g>
<g >
<title>[unknown] (45,950,561 samples, 2.14%)</title><rect x="1164.7" y="405" width="25.3" height="15.0" fill="rgb(231,63,20)" rx="2" ry="2" />
<text  x="1167.70" y="415.5" >[..</text>
</g>
<g >
<title>[unknown] (45,950,561 samples, 2.14%)</title><rect x="1164.7" y="1077" width="25.3" height="15.0" fill="rgb(244,150,50)" rx="2" ry="2" />
<text  x="1167.70" y="1087.5" >[..</text>
</g>
<g >
<title>[unknown] (45,950,561 samples, 2.14%)</title><rect x="1164.7" y="1797" width="25.3" height="15.0" fill="rgb(237,102,52)" rx="2" ry="2" />
<text  x="1167.70" y="1807.5" >[..</text>
</g>
<g >
<title>[unknown] (45,950,561 samples, 2.14%)</title><rect x="1164.7" y="661" width="25.3" height="15.0" fill="rgb(241,58,20)" rx="2" ry="2" />
<text  x="1167.70" y="671.5" >[..</text>
</g>
<g >
<title>[unknown] (45,950,561 samples, 2.14%)</title><rect x="1164.7" y="1669" width="25.3" height="15.0" fill="rgb(206,16,24)" rx="2" ry="2" />
<text  x="1167.70" y="1679.5" >[..</text>
</g>
<g >
<title>[unknown] (45,950,561 samples, 2.14%)</title><rect x="1164.7" y="1557" width="25.3" height="15.0" fill="rgb(225,121,33)" rx="2" ry="2" />
<text  x="1167.70" y="1567.5" >[..</text>
</g>
<g >
<title>[libstdc++.so.6.0.30] (8,763,485 samples, 0.41%)</title><rect x="1159.9" y="2005" width="4.8" height="15.0" fill="rgb(224,26,26)" rx="2" ry="2" />
<text  x="1162.87" y="2015.5" ></text>
</g>
<g >
<title>[unknown] (45,950,561 samples, 2.14%)</title><rect x="1164.7" y="1749" width="25.3" height="15.0" fill="rgb(243,107,22)" rx="2" ry="2" />
<text  x="1167.70" y="1759.5" >[..</text>
</g>
<g >
<title>all (2,142,775,858 samples, 100%)</title><rect x="10.0" y="2085" width="1180.0" height="15.0" fill="rgb(246,200,30)" rx="2" ry="2" />
<text  x="13.00" y="2095.5" ></text>
</g>
<g >
<title>[unknown] (45,950,561 samples, 2.14%)</title><rect x="1164.7" y="501" width="25.3" height="15.0" fill="rgb(209,68,3)" rx="2" ry="2" />
<text  x="1167.70" y="511.5" >[..</text>
</g>
<g >
<title>[libc.so.6] (4,203,169 samples, 0.20%)</title><rect x="1187.7" y="37" width="2.3" height="15.0" fill="rgb(239,177,28)" rx="2" ry="2" />
<text  x="1190.69" y="47.5" ></text>
</g>
<g >
<title>[unknown] (45,950,561 samples, 2.14%)</title><rect x="1164.7" y="917" width="25.3" height="15.0" fill="rgb(233,99,5)" rx="2" ry="2" />
<text  x="1167.70" y="927.5" >[..</text>
</g>
<g >
<title>[unknown] (45,950,561 samples, 2.14%)</title><rect x="1164.7" y="1285" width="25.3" height="15.0" fill="rgb(228,53,12)" rx="2" ry="2" />
<text  x="1167.70" y="1295.5" >[..</text>
</g>
<g >
<title>[unknown] (2,138,361,322 samples, 99.79%)</title><rect x="12.4" y="2053" width="1177.6" height="15.0" fill="rgb(236,60,18)" rx="2" ry="2" />
<text  x="15.43" y="2063.5" >[unknown]</text>
</g>
<g >
<title>[unknown] (45,950,561 samples, 2.14%)</title><rect x="1164.7" y="1413" width="25.3" height="15.0" fill="rgb(232,227,16)" rx="2" ry="2" />
<text  x="1167.70" y="1423.5" >[..</text>
</g>
<g >
<title>[unknown] (45,950,561 samples, 2.14%)</title><rect x="1164.7" y="741" width="25.3" height="15.0" fill="rgb(246,62,18)" rx="2" ry="2" />
<text  x="1167.70" y="751.5" >[..</text>
</g>
<g >
<title>[unknown] (45,950,561 samples, 2.14%)</title><rect x="1164.7" y="645" width="25.3" height="15.0" fill="rgb(211,224,23)" rx="2" ry="2" />
<text  x="1167.70" y="655.5" >[..</text>
</g>
<g >
<title>ACM_ICPC_Manage (2,142,775,858 samples, 100.00%)</title><rect x="10.0" y="2069" width="1180.0" height="15.0" fill="rgb(212,218,42)" rx="2" ry="2" />
<text  x="13.00" y="2079.5" >ACM_ICPC_Manage</text>
</g>
<g >
<title>[unknown] (45,950,561 samples, 2.14%)</title><rect x="1164.7" y="213" width="25.3" height="15.0" fill="rgb(210,58,53)" rx="2" ry="2" />
<text  x="1167.70" y="223.5" >[..</text>
</g>
<g >
<title>[unknown] (45,950,561 samples, 2.14%)</title><rect x="1164.7" y="1477" width="25.3" height="15.0" fill="rgb(231,189,45)" rx="2" ry="2" />
<text  x="1167.70" y="1487.5" >[..</text>
</g>
<g >
<title>[unknown] (45,950,561 samples, 2.14%)</title><rect x="1164.7" y="1141" width="25.3" height="15.0" fill="rgb(223,185,52)" rx="2" ry="2" />
<text  x="1167.70" y="1151.5" >[..</text>
</g>
<g >
<title>[unknown] (45,950,561 samples, 2.14%)</title><rect x="1164.7" y="1877" width="25.3" height="15.0" fill="rgb(240,119,46)" rx="2" ry="2" />
<text  x="1167.70" y="1887.5" >[..</text>
</g>
<g >
<title>[unknown] (45,950,561 samples, 2.14%)</title><rect x="1164.7" y="997" width="25.3" height="15.0" fill="rgb(244,149,4)" rx="2" ry="2" />
<text  x="1167.70" y="1007.5" >[..</text>
</g>
</g>
</svg>
